<svg id="visual" viewBox="0 0 900 450" width="900" height="450" xmlns="http://www.w3.org/2000/svg" xmlns:xlink="http://www.w3.org/1999/xlink" version="1.1"><rect width="900" height="450" fill="#000143"></rect><g><g transform="translate(729 301)"><path d="M0 -54.4L32 -44L51.7 -16.8L51.7 16.8L32 44L0 54.4L-32 44L-51.7 16.8L-51.7 -16.8L-32 -44Z" fill="none" stroke="#f7bd0f" stroke-width="2"></path></g><g transform="translate(818 10)"><path d="M0 -27L15.9 -21.8L25.7 -8.3L25.7 8.3L15.9 21.8L0 27L-15.9 21.8L-25.7 8.3L-25.7 -8.3L-15.9 -21.8Z" fill="none" stroke="#f7bd0f" stroke-width="2"></path></g><g transform="translate(210 179)"><path d="M0 -17L10 -13.8L16.2 -5.3L16.2 5.3L10 13.8L0 17L-10 13.8L-16.2 5.3L-16.2 -5.3L-10 -13.8Z" fill="none" stroke="#f7bd0f" stroke-width="2"></path></g><g transform="translate(864 428)"><path d="M0 -27L15.9 -21.8L25.7 -8.3L25.7 8.3L15.9 21.8L0 27L-15.9 21.8L-25.7 8.3L-25.7 -8.3L-15.9 -21.8Z" fill="none" stroke="#f7bd0f" stroke-width="2"></path></g><g transform="translate(593 295)"><path d="M0 -37L21.7 -29.9L35.2 -11.4L35.2 11.4L21.7 29.9L0 37L-21.7 29.9L-35.2 11.4L-35.2 -11.4L-21.7 -29.9Z" fill="none" stroke="#f7bd0f" stroke-width="2"></path></g><g transform="translate(6 380)"><path d="M0 -40L23.5 -32.4L38 -12.4L38 12.4L23.5 32.4L0 40L-23.5 32.4L-38 12.4L-38 -12.4L-23.5 -32.4Z" fill="none" stroke="#f7bd0f" stroke-width="2"></path></g><g transform="translate(371 83)"><path d="M0 -17L10 -13.8L16.2 -5.3L16.2 5.3L10 13.8L0 17L-10 13.8L-16.2 5.3L-16.2 -5.3L-10 -13.8Z" fill="none" stroke="#f7bd0f" stroke-width="2"></path></g><g transform="translate(516 123)"><path d="M0 -51L30 -41.3L48.5 -15.8L48.5 15.8L30 41.3L0 51L-30 41.3L-48.5 15.8L-48.5 -15.8L-30 -41.3Z" fill="none" stroke="#f7bd0f" stroke-width="2"></path></g><g transform="translate(67 48)"><path d="M0 -12L7.1 -9.7L11.4 -3.7L11.4 3.7L7.1 9.7L0 12L-7.1 9.7L-11.4 3.7L-11.4 -3.7L-7.1 -9.7Z" fill="none" stroke="#f7bd0f" stroke-width="2"></path></g><g transform="translate(353 261)"><path d="M0 -53L31.2 -42.9L50.4 -16.4L50.4 16.4L31.2 42.9L0 53L-31.2 42.9L-50.4 16.4L-50.4 -16.4L-31.2 -42.9Z" fill="none" stroke="#f7bd0f" stroke-width="2"></path></g><g transform="translate(163 352)"><path d="M0 -49L28.8 -39.6L46.6 -15.1L46.6 15.1L28.8 39.6L0 49L-28.8 39.6L-46.6 15.1L-46.6 -15.1L-28.8 -39.6Z" fill="none" stroke="#f7bd0f" stroke-width="2"></path></g><g transform="translate(885 233)"><path d="M0 -19L11.2 -15.4L18.1 -5.9L18.1 5.9L11.2 15.4L0 19L-11.2 15.4L-18.1 5.9L-18.1 -5.9L-11.2 -15.4Z" fill="none" stroke="#f7bd0f" stroke-width="2"></path></g><g transform="translate(223 39)"><path d="M0 -21L12.3 -17L20 -6.5L20 6.5L12.3 17L0 21L-12.3 17L-20 6.5L-20 -6.5L-12.3 -17Z" fill="none" stroke="#f7bd0f" stroke-width="2"></path></g><g transform="translate(600 440)"><path d="M0 -30L17.6 -24.3L28.5 -9.3L28.5 9.3L17.6 24.3L0 30L-17.6 24.3L-28.5 9.3L-28.5 -9.3L-17.6 -24.3Z" fill="none" stroke="#f7bd0f" stroke-width="2"></path></g><g transform="translate(447 367)"><path d="M0 -32L18.8 -25.9L30.4 -9.9L30.4 9.9L18.8 25.9L0 32L-18.8 25.9L-30.4 9.9L-30.4 -9.9L-18.8 -25.9Z" fill="none" stroke="#f7bd0f" stroke-width="2"></path></g><g transform="translate(62 251)"><path d="M0 -7L4.1 -5.7L6.7 -2.2L6.7 2.2L4.1 5.7L0 7L-4.1 5.7L-6.7 2.2L-6.7 -2.2L-4.1 -5.7Z" fill="none" stroke="#f7bd0f" stroke-width="2"></path></g><g transform="translate(743 130)"><path d="M0 -6L3.5 -4.9L5.7 -1.9L5.7 1.9L3.5 4.9L0 6L-3.5 4.9L-5.7 1.9L-5.7 -1.9L-3.5 -4.9Z" fill="none" stroke="#f7bd0f" stroke-width="2"></path></g><g transform="translate(618 51)"><path d="M0 -44L25.9 -35.6L41.8 -13.6L41.8 13.6L25.9 35.6L0 44L-25.9 35.6L-41.8 13.6L-41.8 -13.6L-25.9 -35.6Z" fill="none" stroke="#f7bd0f" stroke-width="2"></path></g><g transform="translate(667 209)"><path d="M0 -44L25.9 -35.6L41.8 -13.6L41.8 13.6L25.9 35.6L0 44L-25.9 35.6L-41.8 13.6L-41.8 -13.6L-25.9 -35.6Z" fill="none" stroke="#f7bd0f" stroke-width="2"></path></g><g transform="translate(479 14)"><path d="M0 -7L4.1 -5.7L6.7 -2.2L6.7 2.2L4.1 5.7L0 7L-4.1 5.7L-6.7 2.2L-6.7 -2.2L-4.1 -5.7Z" fill="none" stroke="#f7bd0f" stroke-width="2"></path></g><g transform="translate(300 408)"><path d="M0 -46L27 -37.2L43.7 -14.2L43.7 14.2L27 37.2L0 46L-27 37.2L-43.7 14.2L-43.7 -14.2L-27 -37.2Z" fill="none" stroke="#f7bd0f" stroke-width="2"></path></g><g transform="translate(459 215)"><path d="M0 -18L10.6 -14.6L17.1 -5.6L17.1 5.6L10.6 14.6L0 18L-10.6 14.6L-17.1 5.6L-17.1 -5.6L-10.6 -14.6Z" fill="none" stroke="#f7bd0f" stroke-width="2"></path></g><g transform="translate(726 448)"><path d="M0 -7L4.1 -5.7L6.7 -2.2L6.7 2.2L4.1 5.7L0 7L-4.1 5.7L-6.7 2.2L-6.7 -2.2L-4.1 -5.7Z" fill="none" stroke="#f7bd0f" stroke-width="2"></path></g><g transform="translate(894 102)"><path d="M0 -45L26.5 -36.4L42.8 -13.9L42.8 13.9L26.5 36.4L0 45L-26.5 36.4L-42.8 13.9L-42.8 -13.9L-26.5 -36.4Z" stroke="#f7bd0f" fill="none" stroke-width="2"></path></g><g transform="translate(3 154)"><path d="M0 -8L4.7 -6.5L7.6 -2.5L7.6 2.5L4.7 6.5L0 8L-4.7 6.5L-7.6 2.5L-7.6 -2.5L-4.7 -6.5Z" stroke="#f7bd0f" fill="none" stroke-width="2"></path></g></g></svg>