<svg id="visual" viewBox="0 0 900 450" width="900" height="450" xmlns="http://www.w3.org/2000/svg" xmlns:xlink="http://www.w3.org/1999/xlink" version="1.1"><rect x="0" y="0" width="900" height="450" fill="#010351"></rect><path d="M543 450L554.8 439.3C566.7 428.7 590.3 407.3 567.8 385.8C545.3 364.3 476.7 342.7 440.8 321.2C405 299.7 402 278.3 432 257C462 235.7 525 214.3 559 193C593 171.7 598 150.3 566.7 128.8C535.3 107.3 467.7 85.7 443.3 64.2C419 42.7 438 21.3 447.5 10.7L457 0L900 0L900 10.7C900 21.3 900 42.7 900 64.2C900 85.7 900 107.3 900 128.8C900 150.3 900 171.7 900 193C900 214.3 900 235.7 900 257C900 278.3 900 299.7 900 321.2C900 342.7 900 364.3 900 385.8C900 407.3 900 428.7 900 439.3L900 450Z" fill="#f7f651"></path><path d="M496 450L522.2 439.3C548.3 428.7 600.7 407.3 618.3 385.8C636 364.3 619 342.7 610 321.2C601 299.7 600 278.3 569.8 257C539.7 235.7 480.3 214.3 452.8 193C425.3 171.7 429.7 150.3 466.5 128.8C503.3 107.3 572.7 85.7 587 64.2C601.3 42.7 560.7 21.3 540.3 10.7L520 0L900 0L900 10.7C900 21.3 900 42.7 900 64.2C900 85.7 900 107.3 900 128.8C900 150.3 900 171.7 900 193C900 214.3 900 235.7 900 257C900 278.3 900 299.7 900 321.2C900 342.7 900 364.3 900 385.8C900 407.3 900 428.7 900 439.3L900 450Z" fill="#fae948"></path><path d="M641 450L627.7 439.3C614.3 428.7 587.7 407.3 557.3 385.8C527 364.3 493 342.7 508.5 321.2C524 299.7 589 278.3 589.3 257C589.7 235.7 525.3 214.3 520.2 193C515 171.7 569 150.3 600.7 128.8C632.3 107.3 641.7 85.7 637 64.2C632.3 42.7 613.7 21.3 604.3 10.7L595 0L900 0L900 10.7C900 21.3 900 42.7 900 64.2C900 85.7 900 107.3 900 128.8C900 150.3 900 171.7 900 193C900 214.3 900 235.7 900 257C900 278.3 900 299.7 900 321.2C900 342.7 900 364.3 900 385.8C900 407.3 900 428.7 900 439.3L900 450Z" fill="#fddd40"></path><path d="M674 450L665.8 439.3C657.7 428.7 641.3 407.3 620.3 385.8C599.3 364.3 573.7 342.7 571.8 321.2C570 299.7 592 278.3 599.2 257C606.3 235.7 598.7 214.3 599.3 193C600 171.7 609 150.3 625.8 128.8C642.7 107.3 667.3 85.7 674.8 64.2C682.3 42.7 672.7 21.3 667.8 10.7L663 0L900 0L900 10.7C900 21.3 900 42.7 900 64.2C900 85.7 900 107.3 900 128.8C900 150.3 900 171.7 900 193C900 214.3 900 235.7 900 257C900 278.3 900 299.7 900 321.2C900 342.7 900 364.3 900 385.8C900 407.3 900 428.7 900 439.3L900 450Z" fill="#fed03b"></path><path d="M681 450L674.2 439.3C667.3 428.7 653.7 407.3 656.7 385.8C659.7 364.3 679.3 342.7 675 321.2C670.7 299.7 642.3 278.3 636.5 257C630.7 235.7 647.3 214.3 639.5 193C631.7 171.7 599.3 150.3 596 128.8C592.7 107.3 618.3 85.7 623.3 64.2C628.3 42.7 612.7 21.3 604.8 10.7L597 0L900 0L900 10.7C900 21.3 900 42.7 900 64.2C900 85.7 900 107.3 900 128.8C900 150.3 900 171.7 900 193C900 214.3 900 235.7 900 257C900 278.3 900 299.7 900 321.2C900 342.7 900 364.3 900 385.8C900 407.3 900 428.7 900 439.3L900 450Z" fill="#ffc437"></path><path d="M710 450L703.2 439.3C696.3 428.7 682.7 407.3 672.2 385.8C661.7 364.3 654.3 342.7 659.7 321.2C665 299.7 683 278.3 696.3 257C709.7 235.7 718.3 214.3 705.2 193C692 171.7 657 150.3 656.8 128.8C656.7 107.3 691.3 85.7 709.7 64.2C728 42.7 730 21.3 731 10.7L732 0L900 0L900 10.7C900 21.3 900 42.7 900 64.2C900 85.7 900 107.3 900 128.8C900 150.3 900 171.7 900 193C900 214.3 900 235.7 900 257C900 278.3 900 299.7 900 321.2C900 342.7 900 364.3 900 385.8C900 407.3 900 428.7 900 439.3L900 450Z" fill="#ffb735"></path><path d="M656 450L678.8 439.3C701.7 428.7 747.3 407.3 755.8 385.8C764.3 364.3 735.7 342.7 714.5 321.2C693.3 299.7 679.7 278.3 668 257C656.3 235.7 646.7 214.3 657.3 193C668 171.7 699 150.3 698.8 128.8C698.7 107.3 667.3 85.7 659.5 64.2C651.7 42.7 667.3 21.3 675.2 10.7L683 0L900 0L900 10.7C900 21.3 900 42.7 900 64.2C900 85.7 900 107.3 900 128.8C900 150.3 900 171.7 900 193C900 214.3 900 235.7 900 257C900 278.3 900 299.7 900 321.2C900 342.7 900 364.3 900 385.8C900 407.3 900 428.7 900 439.3L900 450Z" fill="#ffab35"></path><path d="M776 450L777 439.3C778 428.7 780 407.3 764.7 385.8C749.3 364.3 716.7 342.7 710.5 321.2C704.3 299.7 724.7 278.3 724.5 257C724.3 235.7 703.7 214.3 715.8 193C728 171.7 773 150.3 787 128.8C801 107.3 784 85.7 776.7 64.2C769.3 42.7 771.7 21.3 772.8 10.7L774 0L900 0L900 10.7C900 21.3 900 42.7 900 64.2C900 85.7 900 107.3 900 128.8C900 150.3 900 171.7 900 193C900 214.3 900 235.7 900 257C900 278.3 900 299.7 900 321.2C900 342.7 900 364.3 900 385.8C900 407.3 900 428.7 900 439.3L900 450Z" fill="#ff9e36"></path><path d="M757 450L764.5 439.3C772 428.7 787 407.3 795.3 385.8C803.7 364.3 805.3 342.7 807 321.2C808.7 299.7 810.3 278.3 804.7 257C799 235.7 786 214.3 786.8 193C787.7 171.7 802.3 150.3 808.8 128.8C815.3 107.3 813.7 85.7 811 64.2C808.3 42.7 804.7 21.3 802.8 10.7L801 0L900 0L900 10.7C900 21.3 900 42.7 900 64.2C900 85.7 900 107.3 900 128.8C900 150.3 900 171.7 900 193C900 214.3 900 235.7 900 257C900 278.3 900 299.7 900 321.2C900 342.7 900 364.3 900 385.8C900 407.3 900 428.7 900 439.3L900 450Z" fill="#ff9238"></path><path d="M792 450L797.7 439.3C803.3 428.7 814.7 407.3 827.5 385.8C840.3 364.3 854.7 342.7 850.3 321.2C846 299.7 823 278.3 806.5 257C790 235.7 780 214.3 786.2 193C792.3 171.7 814.7 150.3 829.5 128.8C844.3 107.3 851.7 85.7 844.7 64.2C837.7 42.7 816.3 21.3 805.7 10.7L795 0L900 0L900 10.7C900 21.3 900 42.7 900 64.2C900 85.7 900 107.3 900 128.8C900 150.3 900 171.7 900 193C900 214.3 900 235.7 900 257C900 278.3 900 299.7 900 321.2C900 342.7 900 364.3 900 385.8C900 407.3 900 428.7 900 439.3L900 450Z" fill="#fd853b"></path><path d="M820 450L822.7 439.3C825.3 428.7 830.7 407.3 837.7 385.8C844.7 364.3 853.3 342.7 858.5 321.2C863.7 299.7 865.3 278.3 860.3 257C855.3 235.7 843.7 214.3 840.7 193C837.7 171.7 843.3 150.3 848.3 128.8C853.3 107.3 857.7 85.7 852.3 64.2C847 42.7 832 21.3 824.5 10.7L817 0L900 0L900 10.7C900 21.3 900 42.7 900 64.2C900 85.7 900 107.3 900 128.8C900 150.3 900 171.7 900 193C900 214.3 900 235.7 900 257C900 278.3 900 299.7 900 321.2C900 342.7 900 364.3 900 385.8C900 407.3 900 428.7 900 439.3L900 450Z" fill="#fa793f"></path></svg>