<svg id="visual" viewBox="0 0 900 450" width="900" height="450" xmlns="http://www.w3.org/2000/svg" xmlns:xlink="http://www.w3.org/1999/xlink" version="1.1"><rect x="0" y="0" width="900" height="450" fill="#010351"></rect><path d="M359 0L347.2 10.7C335.3 21.3 311.7 42.7 334.2 64.2C356.7 85.7 425.3 107.3 461.2 128.8C497 150.3 500 171.7 470 193C440 214.3 377 235.7 343 257C309 278.3 304 299.7 335.3 321.2C366.7 342.7 434.3 364.3 458.7 385.8C483 407.3 464 428.7 454.5 439.3L445 450L0 450L0 439.3C0 428.7 0 407.3 0 385.8C0 364.3 0 342.7 0 321.2C0 299.7 0 278.3 0 257C0 235.7 0 214.3 0 193C0 171.7 0 150.3 0 128.8C0 107.3 0 85.7 0 64.2C0 42.7 0 21.3 0 10.7L0 0Z" fill="#f7f651"></path><path d="M406 0L379.8 10.7C353.7 21.3 301.3 42.7 283.7 64.2C266 85.7 283 107.3 292 128.8C301 150.3 302 171.7 332.2 193C362.3 214.3 421.7 235.7 449.2 257C476.7 278.3 472.3 299.7 435.5 321.2C398.7 342.7 329.3 364.3 315 385.8C300.7 407.3 341.3 428.7 361.7 439.3L382 450L0 450L0 439.3C0 428.7 0 407.3 0 385.8C0 364.3 0 342.7 0 321.2C0 299.7 0 278.3 0 257C0 235.7 0 214.3 0 193C0 171.7 0 150.3 0 128.8C0 107.3 0 85.7 0 64.2C0 42.7 0 21.3 0 10.7L0 0Z" fill="#fae948"></path><path d="M261 0L274.3 10.7C287.7 21.3 314.3 42.7 344.7 64.2C375 85.7 409 107.3 393.5 128.8C378 150.3 313 171.7 312.7 193C312.3 214.3 376.7 235.7 381.8 257C387 278.3 333 299.7 301.3 321.2C269.7 342.7 260.3 364.3 265 385.8C269.7 407.3 288.3 428.7 297.7 439.3L307 450L0 450L0 439.3C0 428.7 0 407.3 0 385.8C0 364.3 0 342.7 0 321.2C0 299.7 0 278.3 0 257C0 235.7 0 214.3 0 193C0 171.7 0 150.3 0 128.8C0 107.3 0 85.7 0 64.2C0 42.7 0 21.3 0 10.7L0 0Z" fill="#fddd40"></path><path d="M228 0L236.2 10.7C244.3 21.3 260.7 42.7 281.7 64.2C302.7 85.7 328.3 107.3 330.2 128.8C332 150.3 310 171.7 302.8 193C295.7 214.3 303.3 235.7 302.7 257C302 278.3 293 299.7 276.2 321.2C259.3 342.7 234.7 364.3 227.2 385.8C219.7 407.3 229.3 428.7 234.2 439.3L239 450L0 450L0 439.3C0 428.7 0 407.3 0 385.8C0 364.3 0 342.7 0 321.2C0 299.7 0 278.3 0 257C0 235.7 0 214.3 0 193C0 171.7 0 150.3 0 128.8C0 107.3 0 85.7 0 64.2C0 42.7 0 21.3 0 10.7L0 0Z" fill="#fed03b"></path><path d="M221 0L227.8 10.7C234.7 21.3 248.3 42.7 245.3 64.2C242.3 85.7 222.7 107.3 227 128.8C231.3 150.3 259.7 171.7 265.5 193C271.3 214.3 254.7 235.7 262.5 257C270.3 278.3 302.7 299.7 306 321.2C309.3 342.7 283.7 364.3 278.7 385.8C273.7 407.3 289.3 428.7 297.2 439.3L305 450L0 450L0 439.3C0 428.7 0 407.3 0 385.8C0 364.3 0 342.7 0 321.2C0 299.7 0 278.3 0 257C0 235.7 0 214.3 0 193C0 171.7 0 150.3 0 128.8C0 107.3 0 85.7 0 64.2C0 42.7 0 21.3 0 10.7L0 0Z" fill="#ffc437"></path><path d="M192 0L198.8 10.7C205.7 21.3 219.3 42.7 229.8 64.2C240.3 85.7 247.7 107.3 242.3 128.8C237 150.3 219 171.7 205.7 193C192.3 214.3 183.7 235.7 196.8 257C210 278.3 245 299.7 245.2 321.2C245.3 342.7 210.7 364.3 192.3 385.8C174 407.3 172 428.7 171 439.3L170 450L0 450L0 439.3C0 428.7 0 407.3 0 385.8C0 364.3 0 342.7 0 321.2C0 299.7 0 278.3 0 257C0 235.7 0 214.3 0 193C0 171.7 0 150.3 0 128.8C0 107.3 0 85.7 0 64.2C0 42.7 0 21.3 0 10.7L0 0Z" fill="#ffb735"></path><path d="M246 0L223.2 10.7C200.3 21.3 154.7 42.7 146.2 64.2C137.7 85.7 166.3 107.3 187.5 128.8C208.7 150.3 222.3 171.7 234 193C245.7 214.3 255.3 235.7 244.7 257C234 278.3 203 299.7 203.2 321.2C203.3 342.7 234.7 364.3 242.5 385.8C250.3 407.3 234.7 428.7 226.8 439.3L219 450L0 450L0 439.3C0 428.7 0 407.3 0 385.8C0 364.3 0 342.7 0 321.2C0 299.7 0 278.3 0 257C0 235.7 0 214.3 0 193C0 171.7 0 150.3 0 128.8C0 107.3 0 85.7 0 64.2C0 42.7 0 21.3 0 10.7L0 0Z" fill="#ffab35"></path><path d="M126 0L125 10.7C124 21.3 122 42.7 137.3 64.2C152.7 85.7 185.3 107.3 191.5 128.8C197.7 150.3 177.3 171.7 177.5 193C177.7 214.3 198.3 235.7 186.2 257C174 278.3 129 299.7 115 321.2C101 342.7 118 364.3 125.3 385.8C132.7 407.3 130.3 428.7 129.2 439.3L128 450L0 450L0 439.3C0 428.7 0 407.3 0 385.8C0 364.3 0 342.7 0 321.2C0 299.7 0 278.3 0 257C0 235.7 0 214.3 0 193C0 171.7 0 150.3 0 128.8C0 107.3 0 85.7 0 64.2C0 42.7 0 21.3 0 10.7L0 0Z" fill="#ff9e36"></path><path d="M145 0L137.5 10.7C130 21.3 115 42.7 106.7 64.2C98.3 85.7 96.7 107.3 95 128.8C93.3 150.3 91.7 171.7 97.3 193C103 214.3 116 235.7 115.2 257C114.3 278.3 99.7 299.7 93.2 321.2C86.7 342.7 88.3 364.3 91 385.8C93.7 407.3 97.3 428.7 99.2 439.3L101 450L0 450L0 439.3C0 428.7 0 407.3 0 385.8C0 364.3 0 342.7 0 321.2C0 299.7 0 278.3 0 257C0 235.7 0 214.3 0 193C0 171.7 0 150.3 0 128.8C0 107.3 0 85.7 0 64.2C0 42.7 0 21.3 0 10.7L0 0Z" fill="#ff9238"></path><path d="M110 0L104.3 10.7C98.7 21.3 87.3 42.7 74.5 64.2C61.7 85.7 47.3 107.3 51.7 128.8C56 150.3 79 171.7 95.5 193C112 214.3 122 235.7 115.8 257C109.7 278.3 87.3 299.7 72.5 321.2C57.7 342.7 50.3 364.3 57.3 385.8C64.3 407.3 85.7 428.7 96.3 439.3L107 450L0 450L0 439.3C0 428.7 0 407.3 0 385.8C0 364.3 0 342.7 0 321.2C0 299.7 0 278.3 0 257C0 235.7 0 214.3 0 193C0 171.7 0 150.3 0 128.8C0 107.3 0 85.7 0 64.2C0 42.7 0 21.3 0 10.7L0 0Z" fill="#fd853b"></path><path d="M82 0L79.3 10.7C76.7 21.3 71.3 42.7 64.3 64.2C57.3 85.7 48.7 107.3 43.5 128.8C38.3 150.3 36.7 171.7 41.7 193C46.7 214.3 58.3 235.7 61.3 257C64.3 278.3 58.7 299.7 53.7 321.2C48.7 342.7 44.3 364.3 49.7 385.8C55 407.3 70 428.7 77.5 439.3L85 450L0 450L0 439.3C0 428.7 0 407.3 0 385.8C0 364.3 0 342.7 0 321.2C0 299.7 0 278.3 0 257C0 235.7 0 214.3 0 193C0 171.7 0 150.3 0 128.8C0 107.3 0 85.7 0 64.2C0 42.7 0 21.3 0 10.7L0 0Z" fill="#fa793f"></path></svg>