<svg id="visual" viewBox="0 0 900 450" width="900" height="450" xmlns="http://www.w3.org/2000/svg" xmlns:xlink="http://www.w3.org/1999/xlink" version="1.1"><rect x="0" y="0" width="900" height="450" fill="#ffffff"></rect><defs><linearGradient id="grad1_0" x1="50%" y1="100%" x2="100%" y2="0%"><stop offset="10%" stop-color="#fcaf3c" stop-opacity="1"></stop><stop offset="90%" stop-color="#fcaf3c" stop-opacity="1"></stop></linearGradient></defs><defs><linearGradient id="grad1_1" x1="50%" y1="100%" x2="100%" y2="0%"><stop offset="10%" stop-color="#fcaf3c" stop-opacity="1"></stop><stop offset="90%" stop-color="#ffbc5f" stop-opacity="1"></stop></linearGradient></defs><defs><linearGradient id="grad1_2" x1="50%" y1="100%" x2="100%" y2="0%"><stop offset="10%" stop-color="#ffc980" stop-opacity="1"></stop><stop offset="90%" stop-color="#ffbc5f" stop-opacity="1"></stop></linearGradient></defs><defs><linearGradient id="grad1_3" x1="50%" y1="100%" x2="100%" y2="0%"><stop offset="10%" stop-color="#ffc980" stop-opacity="1"></stop><stop offset="90%" stop-color="#ffd69f" stop-opacity="1"></stop></linearGradient></defs><defs><linearGradient id="grad1_4" x1="50%" y1="100%" x2="100%" y2="0%"><stop offset="10%" stop-color="#ffe4bf" stop-opacity="1"></stop><stop offset="90%" stop-color="#ffd69f" stop-opacity="1"></stop></linearGradient></defs><defs><linearGradient id="grad1_5" x1="50%" y1="100%" x2="100%" y2="0%"><stop offset="10%" stop-color="#ffe4bf" stop-opacity="1"></stop><stop offset="90%" stop-color="#fff1df" stop-opacity="1"></stop></linearGradient></defs><defs><linearGradient id="grad1_6" x1="50%" y1="100%" x2="100%" y2="0%"><stop offset="10%" stop-color="#ffffff" stop-opacity="1"></stop><stop offset="90%" stop-color="#fff1df" stop-opacity="1"></stop></linearGradient></defs><defs><linearGradient id="grad2_0" x1="0%" y1="100%" x2="50%" y2="0%"><stop offset="10%" stop-color="#fcaf3c" stop-opacity="1"></stop><stop offset="90%" stop-color="#fcaf3c" stop-opacity="1"></stop></linearGradient></defs><defs><linearGradient id="grad2_1" x1="0%" y1="100%" x2="50%" y2="0%"><stop offset="10%" stop-color="#ffbc5f" stop-opacity="1"></stop><stop offset="90%" stop-color="#fcaf3c" stop-opacity="1"></stop></linearGradient></defs><defs><linearGradient id="grad2_2" x1="0%" y1="100%" x2="50%" y2="0%"><stop offset="10%" stop-color="#ffbc5f" stop-opacity="1"></stop><stop offset="90%" stop-color="#ffc980" stop-opacity="1"></stop></linearGradient></defs><defs><linearGradient id="grad2_3" x1="0%" y1="100%" x2="50%" y2="0%"><stop offset="10%" stop-color="#ffd69f" stop-opacity="1"></stop><stop offset="90%" stop-color="#ffc980" stop-opacity="1"></stop></linearGradient></defs><defs><linearGradient id="grad2_4" x1="0%" y1="100%" x2="50%" y2="0%"><stop offset="10%" stop-color="#ffd69f" stop-opacity="1"></stop><stop offset="90%" stop-color="#ffe4bf" stop-opacity="1"></stop></linearGradient></defs><defs><linearGradient id="grad2_5" x1="0%" y1="100%" x2="50%" y2="0%"><stop offset="10%" stop-color="#fff1df" stop-opacity="1"></stop><stop offset="90%" stop-color="#ffe4bf" stop-opacity="1"></stop></linearGradient></defs><defs><linearGradient id="grad2_6" x1="0%" y1="100%" x2="50%" y2="0%"><stop offset="10%" stop-color="#fff1df" stop-opacity="1"></stop><stop offset="90%" stop-color="#ffffff" stop-opacity="1"></stop></linearGradient></defs><g transform="translate(900, 450)"><path d="M-270 0C-268.9 -57.6 -267.8 -115.1 -233.8 -135C-199.8 -154.9 -133 -137.1 -88.5 -153.3C-44 -169.5 -22 -219.8 0 -270L0 0Z" fill="#fff8ef"></path><path d="M-231.4 0C-230.5 -49.3 -229.6 -98.7 -200.4 -115.7C-171.3 -132.8 -114 -117.5 -75.9 -131.4C-37.8 -145.3 -18.9 -188.4 0 -231.4L0 0Z" fill="#ffeacf"></path><path d="M-192.9 0C-192.1 -41.1 -191.3 -82.2 -167 -96.4C-142.7 -110.6 -95 -97.9 -63.2 -109.5C-31.5 -121.1 -15.7 -157 0 -192.9L0 0Z" fill="#ffddaf"></path><path d="M-154.3 0C-153.7 -32.9 -153 -65.8 -133.6 -77.1C-114.2 -88.5 -76 -78.3 -50.6 -87.6C-25.2 -96.9 -12.6 -125.6 0 -154.3L0 0Z" fill="#ffd090"></path><path d="M-115.7 0C-115.2 -24.7 -114.8 -49.3 -100.2 -57.9C-85.6 -66.4 -57 -58.7 -37.9 -65.7C-18.9 -72.6 -9.4 -94.2 0 -115.7L0 0Z" fill="#ffc270"></path><path d="M-77.1 0C-76.8 -16.4 -76.5 -32.9 -66.8 -38.6C-57.1 -44.3 -38 -39.2 -25.3 -43.8C-12.6 -48.4 -6.3 -62.8 0 -77.1L0 0Z" fill="#feb54e"></path><path d="M-38.6 0C-38.4 -8.2 -38.3 -16.4 -33.4 -19.3C-28.5 -22.1 -19 -19.6 -12.6 -21.9C-6.3 -24.2 -3.1 -31.4 0 -38.6L0 0Z" fill="#fcaf3c"></path></g><g transform="translate(0, 0)"><path d="M270 0C268.5 56.9 267 113.7 233.8 135C200.6 156.3 135.8 141.9 91.5 158.5C47.2 175 23.6 222.5 0 270L0 0Z" fill="#fff8ef"></path><path d="M231.4 0C230.1 48.7 228.9 97.5 200.4 115.7C172 133.9 116.4 121.6 78.4 135.8C40.5 150 20.2 190.7 0 231.4L0 0Z" fill="#ffeacf"></path><path d="M192.9 0C191.8 40.6 190.7 81.2 167 96.4C143.3 111.6 97 101.4 65.4 113.2C33.7 125 16.9 158.9 0 192.9L0 0Z" fill="#ffddaf"></path><path d="M154.3 0C153.4 32.5 152.6 65 133.6 77.1C114.7 89.3 77.6 81.1 52.3 90.6C27 100 13.5 127.2 0 154.3L0 0Z" fill="#ffd090"></path><path d="M115.7 0C115.1 24.4 114.4 48.7 100.2 57.9C86 67 58.2 60.8 39.2 67.9C20.2 75 10.1 95.4 0 115.7L0 0Z" fill="#ffc270"></path><path d="M77.1 0C76.7 16.2 76.3 32.5 66.8 38.6C57.3 44.6 38.8 40.5 26.1 45.3C13.5 50 6.7 63.6 0 77.1L0 0Z" fill="#feb54e"></path><path d="M38.6 0C38.4 8.1 38.1 16.2 33.4 19.3C28.7 22.3 19.4 20.3 13.1 22.6C6.7 25 3.4 31.8 0 38.6L0 0Z" fill="#fcaf3c"></path></g></svg>